<svg width="100" height="100" viewBox="0 0 100 100" fill="none" xmlns="http://www.w3.org/2000/svg">
<g clip-path="url(#clip0_115_1108)">
<circle cx="50" cy="50" r="50" fill="white" fill-opacity="0.25"/>
<path d="M63.8561 39.5H43.6905C43.2749 39.5 42.9026 39.7571 42.7554 40.1458L31.013 71.1458C30.7651 71.8 31.2485 72.5 31.9481 72.5H58.4458C58.7905 72.5 59.111 72.3224 59.2938 72.03L65.5163 62.074C65.9383 61.3988 66.9416 61.4635 67.2733 62.1873L71.7326 71.9167C71.8955 72.2721 72.2507 72.5 72.6417 72.5H77.947C78.6743 72.5 79.1583 71.7483 78.8574 71.0862L64.7665 40.0862C64.6042 39.7292 64.2482 39.5 63.8561 39.5Z" fill="#E76C73"/>
<path d="M51.5 69.5H55.882C56.2607 69.5 56.607 69.286 56.7764 68.9472L61.5664 59.3673C61.9419 58.6162 63.02 58.6345 63.3698 59.3978L67.7326 68.9167C67.8955 69.2721 68.2507 69.5 68.6417 69.5H76.4371C77.1669 69.5 77.6509 68.7436 77.345 68.0809L75 63" stroke="#18193F" stroke-width="4" stroke-linecap="round"/>
<path d="M52 32.5H38.6681C38.2637 32.5 37.8991 32.7436 37.7443 33.1173L24.0728 66.1173C23.8001 66.7757 24.284 67.5 24.9967 67.5H44.8576C45.249 67.5 45.6044 67.2717 45.7671 66.9158L60.5688 34.537C60.9284 33.7504 62.0494 33.7603 62.395 34.5532L70 52" stroke="#18193F" stroke-width="4" stroke-linecap="round"/>
</g>
<defs>
<clipPath id="clip0_115_1108">
<rect width="100" height="100" fill="white"/>
</clipPath>
</defs>
</svg>
