<svg width="32" height="32" viewBox="0 0 32 32" fill="none" xmlns="http://www.w3.org/2000/svg">
<path d="M0.252217 28.7985L7.35169 1.10262C7.50153 0.518099 8.13101 0.198429 8.69137 0.422299L31.0487 9.35434C31.5687 9.56207 31.8149 10.1484 31.5694 10.6516C30.2273 13.4034 25.7076 21.6693 17.8923 26.2497C10.3594 30.6645 3.49223 30.2918 0.9958 29.9541C0.442447 29.8792 0.113564 29.3394 0.252217 28.7985Z" fill="#310A31"/>
<path d="M8.84918 2.51103L2.03581 28.0662C2.03581 28.0662 5.09319 21.5505 13.9243 16.036C22.7553 10.5214 29.8883 10.5214 29.8883 10.5214L8.84918 2.51103Z" fill="#FFBA08"/>
<path d="M14.8973 16.9843C6.35951 22.5053 2.71556 28.365 2.71556 28.365C2.71556 28.365 11.1633 28.7025 17.8439 24.4987C24.5244 20.2949 30.1904 11.4634 30.1904 11.4634C30.1904 11.4634 23.4351 11.4634 14.8973 16.9843Z" fill="#009FB7"/>
<path d="M9.78385 29.4587C9.3435 30.4772 8.38239 31.1267 7.56847 31.514C7.13518 31.7201 6.75157 31.1787 6.9072 30.7223C7.05156 30.299 7.14681 29.7949 7.09604 29.2486C6.95245 27.7037 6.21535 27.0654 6.21535 27.0654L9.78419 25.0793C9.78419 25.0793 10.6229 27.518 9.78385 29.4587Z" fill="#310A31"/>
</svg>
