<svg width="100" height="100" viewBox="0 0 100 100" fill="none" xmlns="http://www.w3.org/2000/svg">
<g clip-path="url(#clip0_114_1047)">
<circle cx="50" cy="50" r="50" fill="white" fill-opacity="0.25"/>
<path d="M55.058 53.0614C57.2124 44.0477 66.6924 33.7019 70.1144 30.1937C70.6551 29.6393 71.5624 29.9123 71.7118 30.6722C72.6423 35.4047 74.8592 48.8729 71.9617 57.5907C68.7591 67.2261 64.7772 80.5123 57.0567 78.4436C49.3362 76.3749 52.7464 62.732 55.058 53.0614Z" fill="#FC7753"/>
<path d="M68.5103 31.3016L66.9131 26.9115C66.6755 26.2583 65.8663 26.0427 65.3465 26.5041C62.498 29.0322 54.802 36.1838 52.1205 41.9215M48.8611 60.2007C48.8611 60.2007 48.9651 55.7216 49.7911 50.6148M52.1205 41.9215L60.9159 40.8126C61.173 40.7802 61.4326 40.8488 61.64 41.0041L69.9406 47.214M52.1205 41.9215C50.8195 44.7051 50.3243 47.3185 49.7911 50.6148M69.9406 47.214L67.7406 55.4244M69.9406 47.214L70.3034 40.0643M49.7911 50.6148L58.6906 49.0475C58.9625 48.9996 59.242 49.0663 59.4631 49.2316L67.7406 55.4244M67.7406 55.4244C67.7406 55.4244 65.5995 62.5234 63.1859 66.6272C61.171 70.0532 57.08 74.5987 55.7835 76.0069C55.5346 76.2772 55.1586 76.382 54.8036 76.2869L50.7086 75.1896C50.32 75.0855 50.0316 74.7586 49.9768 74.36L48.6623 64.8062" stroke="black" stroke-width="3" stroke-linecap="round"/>
<path d="M34.4815 55.9283C31.8405 47.045 34.8774 33.3452 36.0869 28.5961C36.278 27.8456 37.2002 27.6284 37.7095 28.2118C40.8817 31.845 49.5357 42.4004 51.3852 51.399C53.4293 61.3447 56.624 74.8419 48.9035 76.9106C41.183 78.9793 37.315 65.4591 34.4815 55.9283Z" fill="#66D7D1"/>
<path d="M35.2517 30.3576L31.6734 27.3543C31.141 26.9074 30.3325 27.1253 30.113 27.7848C28.9101 31.3984 25.8211 41.4399 26.3676 47.7496M32.6846 65.2096C32.6846 65.2096 30.5351 61.2786 28.697 56.443M26.3676 47.7496L33.4303 42.3916C33.6367 42.235 33.8958 42.1647 34.1531 42.1954L44.4466 43.423M26.3676 47.7496C26.6328 50.8108 27.5106 53.3217 28.697 56.443M44.4466 43.423L46.6465 51.6334M44.4466 43.423L41.1859 37.0498M28.697 56.443L35.6205 50.6359C35.832 50.4585 36.1075 50.3764 36.3816 50.4091L46.6465 51.6334M46.6465 51.6334C46.6465 51.6334 48.3418 58.8519 48.3034 63.6127C48.2715 67.5872 47.0013 73.5692 46.5826 75.4369C46.5022 75.7955 46.229 76.0743 45.874 76.1694L41.779 77.2666C41.3904 77.3708 40.9772 77.2319 40.7304 76.9141L34.8152 69.2975" stroke="black" stroke-width="3" stroke-linecap="round"/>
</g>
<defs>
<clipPath id="clip0_114_1047">
<rect width="100" height="100" fill="white"/>
</clipPath>
</defs>
</svg>
