<svg width="100" height="100" viewBox="0 0 100 100" fill="none" xmlns="http://www.w3.org/2000/svg">
<g clip-path="url(#clip0_114_1055)">
<circle cx="50" cy="50" r="50" fill="white" fill-opacity="0.25"/>
<path d="M48.0525 52.6055C47.8007 43.3413 54.2799 30.8944 56.6774 26.6201C57.0562 25.9446 58.0032 25.9735 58.3442 26.6689C60.4679 30.9993 66.0951 43.4348 65.5526 52.6055C64.9529 62.7414 64.5454 76.6055 56.5525 76.6055C48.5597 76.6055 48.3227 62.5448 48.0525 52.6055Z" fill="#FC7753"/>
<path d="M55.4147 28.1055L52.7357 24.2783C52.3371 23.7089 51.4997 23.7101 51.117 24.2903C49.0198 27.4695 43.4371 36.3692 42.332 42.6055M43.9147 61.1055C43.9147 61.1055 42.8559 56.7521 42.332 51.6055M42.332 42.6055L50.5407 39.258C50.7806 39.1601 51.0491 39.1592 51.2897 39.2555L60.9147 43.1055M42.332 42.6055C41.7958 45.631 41.9938 48.2835 42.332 51.6055M60.9147 43.1055V51.6055M60.9147 43.1055L59.4147 36.1055M42.332 51.6055L50.5226 47.7882C50.7728 47.6716 51.0601 47.6636 51.3164 47.7661L60.9147 51.6055M60.9147 51.6055C60.9147 51.6055 60.6839 59.0168 59.4147 63.6055C58.3551 67.4362 55.58 72.8856 54.6921 74.5814C54.5217 74.907 54.1856 75.1055 53.8181 75.1055H49.5786C49.1763 75.1055 48.8131 74.8643 48.657 74.4935L44.9147 65.6055" stroke="black" stroke-width="3" stroke-linecap="round"/>
<path d="M75.058 53.1669C77.2124 44.1532 86.6924 33.8073 90.1144 30.2992C90.6551 29.7448 91.5624 30.0178 91.7118 30.7777C92.6423 35.5102 94.8592 48.9784 91.9617 57.6962C88.7591 67.3315 84.7772 80.6177 77.0567 78.549C69.3362 76.4803 72.7464 62.8375 75.058 53.1669Z" fill="#FFCA3A"/>
<path d="M88.5103 31.4071L86.9131 27.0169C86.6755 26.3638 85.8663 26.1482 85.3465 26.6096C82.498 29.1376 74.802 36.2893 72.1205 42.0269M68.8611 60.3062C68.8611 60.3062 68.9651 55.8271 69.7911 50.7203M72.1205 42.0269L80.9159 40.9181C81.173 40.8857 81.4326 40.9543 81.64 41.1095L89.9406 47.3195M72.1205 42.0269C70.8195 44.8106 70.3243 47.424 69.7911 50.7203M89.9406 47.3195L87.7406 55.5298M89.9406 47.3195L90.3034 40.1698M69.7911 50.7203L78.6906 49.153C78.9625 49.1051 79.242 49.1717 79.4631 49.3371L87.7406 55.5298M87.7406 55.5298C87.7406 55.5298 85.5995 62.6289 83.1859 66.7327C81.171 70.1587 77.08 74.7042 75.7835 76.1123C75.5346 76.3827 75.1586 76.4875 74.8036 76.3924L70.7086 75.2951C70.32 75.191 70.0316 74.8641 69.9768 74.4655L68.6623 64.9117" stroke="black" stroke-width="3"/>
<path d="M21.4815 56.0338C18.8405 47.1505 21.8774 33.4507 23.0869 28.7015C23.278 27.9511 24.2002 27.7339 24.7095 28.3172C27.8817 31.9505 36.5357 42.5058 38.3852 51.5044C40.4293 61.4502 43.624 74.9473 35.9035 77.016C28.183 79.0847 24.315 65.5645 21.4815 56.0338Z" fill="#66D7D1"/>
<path d="M22.2517 30.4631L18.6734 27.4597C18.141 27.0129 17.3325 27.2308 17.113 27.8903C15.9101 31.5039 12.8211 41.5453 13.3676 47.8551M19.6846 65.3151C19.6846 65.3151 17.5351 61.3841 15.697 56.5484M13.3676 47.8551L20.4303 42.4971C20.6367 42.3405 20.8958 42.2701 21.1531 42.3008L31.4466 43.5285M13.3676 47.8551C13.6328 50.9163 14.5106 53.4272 15.697 56.5484M31.4466 43.5285L33.6465 51.7389M31.4466 43.5285L28.1859 37.1553M15.697 56.5484L22.6205 50.7414C22.832 50.564 23.1075 50.4819 23.3816 50.5146L33.6465 51.7389M33.6465 51.7389C33.6465 51.7389 35.3418 58.9574 35.3034 63.7182C35.2715 67.6926 34.0013 73.6746 33.5826 75.5424C33.5022 75.901 33.229 76.1797 32.874 76.2749L28.779 77.3721C28.3904 77.4762 27.9772 77.3373 27.7304 77.0196L21.8152 69.4029" stroke="black" stroke-width="3" stroke-linecap="round"/>
</g>
<defs>
<clipPath id="clip0_114_1055">
<rect width="100" height="100" fill="white"/>
</clipPath>
</defs>
</svg>
