<svg width="185" height="42" viewBox="0 0 185 42" fill="none" xmlns="http://www.w3.org/2000/svg">
<path d="M114.993 11.5551C115.665 13.1679 116 14.9526 116 16.9091C116 18.8524 115.738 20.6635 115.214 22.3424C114.689 24.0081 114.159 25.5548 113.215 26.9825C112.271 28.3971 111.139 29.6794 109.817 30.8295C108.517 31.9664 107.069 32.938 105.475 33.7444C102.182 35.4101 99.0137 36.243 95.1541 36.243C94.5458 36.243 94.1473 36.124 93.9585 35.886C93.7907 35.6349 93.7068 35.3374 93.7068 34.9937V33.2884C93.7068 32.4687 93.6963 31.4773 93.6753 30.3139C93.6753 29.1374 93.6648 27.8352 93.6439 26.4075C93.6439 24.9665 93.6229 23.4793 93.5809 21.9458C93.56 20.3991 93.5285 18.8458 93.4866 17.2859C93.4656 15.7127 93.4341 14.2123 93.3922 12.7845C93.2663 9.8233 93.1195 7.49001 92.9517 5.78467C92.8468 4.88572 93.4761 4.38337 94.8395 4.27761C96.8532 4.09254 98.5103 4 99.8108 4C108.243 4 112.896 6.51836 114.993 11.5551ZM95.6288 34.379C97.999 34.3261 101.583 33.685 103.933 32.4555C108.296 30.1685 111.823 26.7578 113.292 22.2234C113.795 20.6635 114.047 18.8987 114.047 16.9289C114.047 14.946 113.659 13.2274 112.883 11.7732C112.128 10.3058 111.409 9.30581 109.109 7.85523C107.255 6.68575 104.079 5.8045 100.472 5.8045C98.8983 5.8045 96.3944 5.91025 95.4085 6.12177C95.2407 7.4834 95.1568 9.39366 95.1568 11.8525C95.1568 14.8005 95.1673 17.0545 95.1883 18.6144C95.2093 20.1744 95.2302 21.7012 95.2512 23.1951C95.2932 24.6889 95.3246 26.1233 95.3456 27.4981C95.3875 28.8597 95.4295 30.0826 95.4714 31.1666C95.5344 32.5282 95.5868 33.599 95.6288 34.379Z" fill="white"/>
<path d="M105.999 20.6105C105.932 22.264 105.864 23.8936 105.797 25.4995C105.729 27.1053 105.696 28.5521 105.696 29.8399C105.696 31.1278 105.729 32.4633 105.797 33.8465C105.864 35.2138 105.864 36.0009 105.797 36.2075C105.743 36.3983 105.662 36.5573 105.554 36.6845C105.324 36.9548 105.074 37.0899 104.804 37.0899C104.534 37.0899 104.278 36.9707 104.035 36.7322C103.805 36.4937 103.717 36.0088 103.771 35.2774C103.92 33.2582 103.994 31.2152 103.994 29.1483C103.994 27.0814 103.967 25.412 103.913 24.1401C103.873 22.8522 103.839 21.8824 103.812 21.2305C103.798 20.5787 103.825 20.1573 103.893 19.9665C103.96 19.7758 104.055 19.6247 104.176 19.5134C104.406 19.259 104.663 19.1318 104.946 19.1318C105.23 19.1318 105.48 19.2511 105.696 19.4896C105.912 19.7281 106.013 20.1017 105.999 20.6105Z" fill="#009FB7"/>
<path d="M104.328 20.9477C102.492 20.9192 100.683 20.89 98.9 20.8604C97.1171 20.8307 95.5113 20.8306 94.0826 20.8601C92.6538 20.8896 91.1729 20.9533 89.6397 21.0514C88.1241 21.1491 87.251 21.1671 87.0203 21.1055C86.8076 21.0567 86.6295 20.9806 86.4862 20.8773C86.1817 20.6577 86.0267 20.415 86.0212 20.1494C86.0157 19.8837 86.1428 19.6286 86.4025 19.384C86.6624 19.1528 87.1986 19.0553 88.0111 19.0917C90.2542 19.1916 92.5223 19.2179 94.8153 19.1706C97.1083 19.1233 98.9599 19.0585 100.37 18.9763C101.798 18.907 102.873 18.8516 103.596 18.8101C104.319 18.7819 104.787 18.7988 105 18.8609C105.213 18.9229 105.382 19.0124 105.508 19.1294C105.795 19.3494 105.941 19.5989 105.947 19.8778C105.953 20.1568 105.826 20.4052 105.565 20.6232C105.305 20.8412 104.893 20.9494 104.328 20.9477Z" fill="#009FB7"/>
<path d="M106.472 14.5414C106.498 14.2358 106.465 13.9768 106.372 13.7642C106.08 13.1265 105.575 12.8076 104.857 12.8076C104.419 12.8076 103.981 13.0003 103.542 13.3855C103.276 13.6114 103.144 13.9834 103.144 14.5016C103.144 15.0197 103.316 15.4382 103.662 15.7571C103.808 15.8899 103.974 15.9962 104.16 16.0759C104.346 16.1423 104.598 16.1756 104.917 16.1756C105.236 16.1756 105.548 16.056 105.854 15.8168C106.013 15.684 106.153 15.5113 106.272 15.2987C106.392 15.0861 106.458 14.8337 106.472 14.5414Z" fill="#FFBA08"/>
<path d="M127.164 27.3371C127.632 27.3371 127.926 27.515 128.047 27.8707C128.167 28.2263 128.227 28.8126 128.227 29.6293C128.227 30.4461 128.341 31.2102 128.569 31.9216C128.796 32.6329 129.11 33.2323 129.512 33.7198C130.328 34.6946 131.458 35.182 132.903 35.182C134.348 35.182 135.499 34.6617 136.355 33.621C137.211 32.5671 137.639 31.0587 137.639 29.0958C137.639 26.4743 136.509 24.1425 134.248 22.1006C133.605 21.521 132.943 20.9479 132.261 20.3814C131.592 19.815 130.937 19.2287 130.294 18.6228C129.652 18.0168 129.077 17.3449 128.569 16.6072C127.458 14.9868 126.903 13.1425 126.903 11.0743C126.903 8.95329 127.538 7.24072 128.809 5.93653C130.067 4.64551 131.646 4 133.545 4C135.177 4 136.515 4.54012 137.559 5.62036C138.723 6.85868 139.258 8.57126 139.164 10.7581C139.151 10.8635 139.144 10.9754 139.144 11.094C139.157 11.2126 139.144 11.4365 139.104 11.7659C139.077 12.0952 138.937 12.3916 138.683 12.6551C138.442 12.9054 138.174 13.0305 137.88 13.0305C137.599 13.0305 137.358 12.9054 137.157 12.6551C136.957 12.3916 136.89 12.0491 136.957 11.6275C137.131 10.6659 137.218 9.94132 137.218 9.45389C137.218 8.95329 137.124 8.47904 136.937 8.03114C136.763 7.58323 136.509 7.18802 136.174 6.84551C135.452 6.12096 134.515 5.75868 133.365 5.75868C132.094 5.75868 131.057 6.18683 130.254 7.04311C129.371 7.99162 128.93 9.15748 128.93 10.5407C128.93 11.924 129.084 13.0437 129.391 13.9C129.699 14.7431 130.1 15.5072 130.595 16.1922C131.104 16.8772 131.679 17.503 132.321 18.0695C132.963 18.6359 133.612 19.1958 134.268 19.7491C134.937 20.3024 135.592 20.8755 136.234 21.4683C136.876 22.0479 137.452 22.6934 137.96 23.4048C139.07 25.012 139.626 26.8629 139.626 28.9575C139.626 31.4078 138.984 33.3641 137.699 34.8263C136.428 36.2755 134.729 37 132.602 37C130.622 37 129.01 36.2491 127.766 34.7473C126.589 33.3377 126 31.7503 126 29.985C126 28.2198 126.388 27.3371 127.164 27.3371Z" fill="white"/>
<path d="M145.557 31.5856C145.557 33.9305 146.447 35.103 148.226 35.103C149.243 35.103 150.112 34.6024 150.835 33.6012C151.477 32.7054 151.858 31.6383 151.979 30.4C152.019 29.2407 152.039 28.1737 152.039 27.1988C152.039 25.8024 152.025 24.3928 151.999 22.9701C151.972 22.5353 152.086 22.206 152.34 21.982C152.594 21.7581 152.855 21.6461 153.122 21.6461C153.403 21.6461 153.651 21.7515 153.865 21.9623C154.079 22.1599 154.159 22.4563 154.106 22.8515C153.865 25.394 153.744 27.8509 153.744 30.2222C153.744 32.5802 153.778 33.8976 153.845 34.1743C153.912 34.4509 153.992 34.6814 154.086 34.8659C154.3 35.3401 154.407 35.6892 154.407 35.9132C154.407 36.124 154.32 36.3216 154.146 36.506C153.985 36.7036 153.758 36.8024 153.463 36.8024C152.46 36.8024 151.972 35.9 151.999 34.0952C151.544 34.912 151.122 35.4784 150.734 35.7946C149.41 36.8749 147.958 37.1317 146.38 36.5653C144.614 35.9066 143.731 34.1874 143.731 31.4078C143.731 29.9587 143.717 28.5293 143.691 27.1198C143.677 25.7102 143.677 24.3269 143.691 22.9701C143.704 22.5353 143.824 22.2126 144.052 22.0018C144.293 21.7778 144.547 21.6659 144.814 21.6659C145.095 21.6659 145.35 21.7647 145.577 21.9623C145.804 22.1599 145.885 22.4958 145.818 22.9701C145.764 23.4443 145.718 24.0635 145.677 24.8275C145.651 25.5916 145.631 26.3754 145.617 27.179C145.577 28.5228 145.557 29.9916 145.557 31.5856Z" fill="white"/>
<path d="M166.654 22.1599C166.654 22.8713 166.293 23.2796 165.57 23.385C164.687 23.5563 163.691 24.3006 162.58 25.618C161.389 27.0407 160.721 28.4437 160.573 29.8269C160.52 30.4329 160.493 30.9862 160.493 31.4868C160.493 32.6856 160.547 33.9437 160.654 35.2611C160.68 35.6958 160.567 36.0252 160.313 36.2491C160.072 36.4731 159.804 36.585 159.51 36.585C159.229 36.585 158.981 36.4862 158.767 36.2886C158.553 36.0778 158.466 35.7683 158.506 35.3599C158.547 34.9383 158.58 34.4575 158.607 33.9174C158.634 33.3641 158.66 32.7844 158.687 32.1784C158.714 31.1509 158.727 30.0048 158.727 28.7401C158.727 26.606 158.7 25.0252 158.647 23.9976C158.593 22.9569 158.6 22.3575 158.667 22.1994C158.734 22.0413 158.821 21.9162 158.928 21.824C159.155 21.6132 159.403 21.5078 159.67 21.5078C159.951 21.5078 160.199 21.6066 160.413 21.8042C160.64 22.0018 160.741 22.2587 160.714 22.5749C160.701 22.8778 160.674 23.1808 160.634 23.4838C160.607 23.7737 160.573 24.1359 160.533 24.5707C160.453 25.2689 160.379 26.0132 160.313 26.8036C160.861 25.4467 161.644 24.1952 162.66 23.0491C163.798 21.7976 164.788 21.1719 165.63 21.1719C165.992 21.1719 166.252 21.2707 166.413 21.4683C166.574 21.6659 166.654 21.8964 166.654 22.1599Z" fill="white"/>
<path d="M178.692 10.2795L178.953 8.73817C178.953 7.56572 178.558 6.84116 177.769 6.56452C177.542 6.48548 177.241 6.44596 176.866 6.44596C176.505 6.44596 176.15 6.56452 175.803 6.80164C175.455 7.03877 175.16 7.48667 174.92 8.14536C174.384 9.68667 174.157 10.2575 174.237 16.7653C174.264 18.4778 174.277 20.1377 174.277 21.7449L177.508 21.6461C178.405 21.6461 178.853 21.9754 178.853 22.6341C178.853 23.0425 178.625 23.3389 178.171 23.5234C178.01 23.576 177.756 23.5892 177.408 23.5629C176.338 23.5102 175.615 23.4838 175.241 23.4838C174.879 23.4838 174.558 23.4904 174.277 23.5036V27.0407C174.277 30.8611 174.324 33.1533 174.418 33.9174C174.512 34.6814 174.532 35.182 174.478 35.4192C174.425 35.6563 174.338 35.8539 174.217 36.012C173.976 36.3545 173.702 36.5257 173.395 36.5257C173.1 36.5257 172.853 36.4072 172.652 36.1701C172.465 35.9329 172.378 35.597 172.391 35.1623C172.418 34.7275 172.431 34.1216 172.431 33.3443C172.445 32.5539 172.445 31.612 172.431 30.5186C172.431 29.412 172.431 28.1737 172.431 26.8036C172.418 25.7892 172.405 24.7287 172.391 23.6222C172.083 23.6485 171.722 23.6683 171.308 23.6814C170.866 23.7078 170.545 23.6156 170.344 23.4048C170.144 23.194 170.043 22.9701 170.043 22.7329C170.043 22.4958 170.083 22.3114 170.164 22.1796C170.257 22.0347 170.371 21.9162 170.505 21.824C170.759 21.6527 171.033 21.5671 171.328 21.5671L172.391 21.6461C172.364 18.7874 172.351 16.0671 172.351 13.485C172.351 10.6659 172.425 11.9986 172.572 10.5759C172.732 9.15314 172.993 7.99386 173.354 7.09805C174.063 5.39865 175.348 4.54895 177.207 4.54895C178.946 4.54895 180.11 5.51063 180.699 7.43398C180.9 8.06631 181 8.75793 181 9.50883C181 10.2466 180.88 10.7603 180.639 11.0501C180.398 11.34 180.117 11.4849 179.796 11.4849C179.06 11.4849 178.692 11.0831 178.692 10.2795Z" fill="white"/>
<path d="M15.8753 2.25591L53.827 13.2284C54.4336 13.4038 54.7222 14.078 54.3915 14.616C52.4222 17.8193 45.5844 27.5854 32.5935 32.9568C19.468 38.3839 6.89576 36.985 3.13421 36.3821C2.53118 36.2855 2.19491 35.664 2.4119 35.0931L14.6628 2.86128C14.8478 2.37463 15.3752 2.11131 15.8753 2.25591Z" fill="white"/>
<path d="M21.9627 34.9335C20.1219 38.1077 15.6122 39.8885 13.3363 40.613C12.8879 40.7557 12.4961 40.2287 12.715 39.8206C13.2463 38.8299 13.8091 37.3864 13.4415 36.1756L21.9627 34.9335Z" fill="white"/>
<path d="M5.43303 33.4991L15.8935 5.84846C16.0756 5.3671 16.5933 5.10256 17.0901 5.23704L50.7006 14.3356C51.3478 14.5108 51.6328 15.2496 51.2369 15.7907C49.1078 18.7013 42.5105 26.6687 31.2828 31.1274C19.9557 35.6256 9.65315 35.1305 6.21336 34.7908C5.58406 34.7287 5.20928 34.0906 5.43303 33.4991Z" fill="#310A31"/>
<path d="M18 7.50046L7.99152 32.9367C7.99152 32.9367 12.4826 26.4513 25.455 20.9624C38.4274 15.4735 48.9054 15.4735 48.9054 15.4735L18 7.50046Z" fill="#FFBA08"/>
<path d="M26.8834 21.907C14.3418 27.4022 8.98899 33.2346 8.98899 33.2346C8.98899 33.2346 21.3983 33.5705 31.2117 29.3863C41.025 25.2021 49.3481 16.4117 49.3481 16.4117C49.3481 16.4117 39.4249 16.4117 26.8834 21.907Z" fill="#009FB7"/>
<path d="M19.3717 35.3824C18.6368 36.5341 16.9147 37.5892 15.6438 38.2535C15.2076 38.4815 14.7219 37.9559 14.9202 37.5074C15.2439 36.7754 15.5224 35.8946 15.4234 35.1733C15.2125 33.6356 14.1297 31.9386 14.1297 31.9386L19.3722 29.9617C19.3722 29.9617 20.6041 33.4508 19.3717 35.3824Z" fill="#310A31"/>
</svg>
