<svg width="185" height="42" viewBox="0 0 185 42" fill="none" xmlns="http://www.w3.org/2000/svg">
<g clip-path="url(#clip0_196_1152)">
<path d="M114.993 12.5551C115.665 14.1679 116 15.9526 116 17.9091C116 19.8524 115.738 21.6635 115.214 23.3424C114.689 25.0081 114.159 26.5548 113.215 27.9825C112.271 29.3971 111.139 30.6794 109.817 31.8295C108.517 32.9664 107.069 33.938 105.475 34.7444C102.182 36.4101 99.0137 37.243 95.1541 37.243C94.5458 37.243 94.1473 37.124 93.9585 36.886C93.7907 36.6349 93.7068 36.3374 93.7068 35.9937V34.2884C93.7068 33.4687 93.6963 32.4773 93.6753 31.3139C93.6753 30.1374 93.6648 28.8352 93.6439 27.4075C93.6439 25.9665 93.6229 24.4793 93.5809 22.9458C93.56 21.3991 93.5285 19.8458 93.4866 18.2859C93.4656 16.7127 93.4341 15.2123 93.3922 13.7845C93.2663 10.8233 93.1195 8.49001 92.9517 6.78467C92.8468 5.88572 93.4761 5.38337 94.8395 5.27761C96.8532 5.09254 98.5103 5 99.8108 5C108.243 5 112.896 7.51836 114.993 12.5551ZM95.6288 35.379C97.999 35.3261 101.583 34.685 103.933 33.4555C108.296 31.1685 111.823 27.7578 113.292 23.2234C113.795 21.6635 114.047 19.8987 114.047 17.9289C114.047 15.946 113.659 14.2274 112.883 12.7732C112.128 11.3058 111.409 10.3058 109.109 8.85523C107.255 7.68575 104.079 6.8045 100.472 6.8045C98.8983 6.8045 96.3944 6.91025 95.4085 7.12177C95.2407 8.4834 95.1568 10.3937 95.1568 12.8525C95.1568 15.8005 95.1673 18.0545 95.1883 19.6144C95.2093 21.1744 95.2302 22.7012 95.2512 24.1951C95.2932 25.6889 95.3246 27.1233 95.3456 28.4981C95.3875 29.8597 95.4295 31.0826 95.4714 32.1666C95.5344 33.5282 95.5868 34.599 95.6288 35.379Z" fill="white"/>
<path d="M105.999 21.6105C105.932 23.264 105.864 24.8936 105.797 26.4995C105.729 28.1053 105.696 29.5521 105.696 30.8399C105.696 32.1278 105.729 33.4633 105.797 34.8465C105.864 36.2138 105.864 37.0009 105.797 37.2075C105.743 37.3983 105.662 37.5573 105.554 37.6845C105.324 37.9548 105.074 38.0899 104.804 38.0899C104.534 38.0899 104.278 37.9707 104.035 37.7322C103.805 37.4937 103.717 37.0088 103.771 36.2774C103.92 34.2582 103.994 32.2152 103.994 30.1483C103.994 28.0814 103.967 26.412 103.913 25.1401C103.873 23.8522 103.839 22.8824 103.812 22.2305C103.798 21.5787 103.825 21.1573 103.893 20.9665C103.96 20.7758 104.055 20.6247 104.176 20.5134C104.406 20.259 104.663 20.1318 104.946 20.1318C105.23 20.1318 105.48 20.2511 105.696 20.4896C105.912 20.7281 106.013 21.1017 105.999 21.6105Z" fill="#66D7D1"/>
<path d="M104.328 21.9477C102.492 21.9192 100.683 21.89 98.9 21.8604C97.1171 21.8307 95.5113 21.8306 94.0826 21.8601C92.6538 21.8896 91.1729 21.9533 89.6397 22.0514C88.1241 22.1491 87.251 22.1671 87.0203 22.1055C86.8076 22.0567 86.6295 21.9806 86.4862 21.8773C86.1817 21.6577 86.0267 21.415 86.0212 21.1494C86.0157 20.8837 86.1428 20.6286 86.4025 20.384C86.6624 20.1528 87.1986 20.0553 88.0111 20.0917C90.2542 20.1916 92.5223 20.2179 94.8153 20.1706C97.1083 20.1233 98.9599 20.0585 100.37 19.9763C101.798 19.907 102.873 19.8516 103.596 19.8101C104.319 19.7819 104.787 19.7988 105 19.8609C105.213 19.9229 105.382 20.0124 105.508 20.1294C105.795 20.3494 105.941 20.5989 105.947 20.8778C105.953 21.1568 105.826 21.4052 105.565 21.6232C105.305 21.8412 104.893 21.9494 104.328 21.9477Z" fill="#66D7D1"/>
<path d="M106.472 15.5414C106.498 15.2358 106.465 14.9768 106.372 14.7642C106.08 14.1265 105.575 13.8076 104.858 13.8076C104.419 13.8076 103.981 14.0003 103.542 14.3855C103.277 14.6114 103.144 14.9834 103.144 15.5016C103.144 16.0197 103.317 16.4382 103.662 16.7571C103.808 16.8899 103.974 16.9962 104.16 17.0759C104.346 17.1423 104.599 17.1756 104.917 17.1756C105.236 17.1756 105.549 17.056 105.854 16.8168C106.014 16.684 106.153 16.5113 106.273 16.2987C106.392 16.0861 106.459 15.8337 106.472 15.5414Z" fill="#EDF060"/>
<path d="M127.164 27.3371C127.632 27.3371 127.926 27.515 128.047 27.8707C128.167 28.2263 128.227 28.8126 128.227 29.6293C128.227 30.4461 128.341 31.2102 128.569 31.9216C128.796 32.6329 129.11 33.2323 129.512 33.7198C130.328 34.6946 131.458 35.182 132.903 35.182C134.348 35.182 135.499 34.6617 136.355 33.621C137.211 32.5671 137.639 31.0587 137.639 29.0958C137.639 26.4743 136.509 24.1425 134.248 22.1006C133.605 21.521 132.943 20.9479 132.261 20.3814C131.592 19.815 130.937 19.2287 130.294 18.6228C129.652 18.0168 129.077 17.3449 128.569 16.6072C127.458 14.9868 126.903 13.1425 126.903 11.0743C126.903 8.95329 127.538 7.24072 128.809 5.93653C130.067 4.64551 131.646 4 133.545 4C135.177 4 136.515 4.54012 137.559 5.62036C138.723 6.85868 139.258 8.57126 139.164 10.7581C139.151 10.8635 139.144 10.9754 139.144 11.094C139.157 11.2126 139.144 11.4365 139.104 11.7659C139.077 12.0952 138.937 12.3916 138.683 12.6551C138.442 12.9054 138.174 13.0305 137.88 13.0305C137.599 13.0305 137.358 12.9054 137.157 12.6551C136.957 12.3916 136.89 12.0491 136.957 11.6275C137.131 10.6659 137.218 9.94132 137.218 9.45389C137.218 8.95329 137.124 8.47904 136.937 8.03114C136.763 7.58323 136.509 7.18802 136.174 6.84551C135.452 6.12096 134.515 5.75868 133.365 5.75868C132.094 5.75868 131.057 6.18683 130.254 7.04311C129.371 7.99162 128.93 9.15748 128.93 10.5407C128.93 11.924 129.084 13.0437 129.391 13.9C129.699 14.7431 130.1 15.5072 130.595 16.1922C131.104 16.8772 131.679 17.503 132.321 18.0695C132.963 18.6359 133.612 19.1958 134.268 19.7491C134.937 20.3024 135.592 20.8755 136.234 21.4683C136.876 22.0479 137.452 22.6934 137.96 23.4048C139.07 25.012 139.626 26.8629 139.626 28.9575C139.626 31.4078 138.984 33.3641 137.699 34.8263C136.428 36.2755 134.729 37 132.602 37C130.622 37 129.01 36.2491 127.766 34.7473C126.589 33.3377 126 31.7503 126 29.985C126 28.2198 126.388 27.3371 127.164 27.3371Z" fill="white"/>
<path d="M145.557 31.5856C145.557 33.9305 146.447 35.103 148.226 35.103C149.243 35.103 150.112 34.6024 150.835 33.6012C151.477 32.7054 151.858 31.6383 151.979 30.4C152.019 29.2407 152.039 28.1737 152.039 27.1988C152.039 25.8024 152.025 24.3928 151.999 22.9701C151.972 22.5353 152.086 22.206 152.34 21.982C152.594 21.7581 152.855 21.6461 153.122 21.6461C153.403 21.6461 153.651 21.7515 153.865 21.9623C154.079 22.1599 154.159 22.4563 154.106 22.8515C153.865 25.394 153.744 27.8509 153.744 30.2222C153.744 32.5802 153.778 33.8976 153.845 34.1743C153.912 34.4509 153.992 34.6814 154.086 34.8659C154.3 35.3401 154.407 35.6892 154.407 35.9132C154.407 36.124 154.32 36.3216 154.146 36.506C153.985 36.7036 153.758 36.8024 153.463 36.8024C152.46 36.8024 151.972 35.9 151.999 34.0952C151.544 34.912 151.122 35.4784 150.734 35.7946C149.41 36.8749 147.958 37.1317 146.38 36.5653C144.614 35.9066 143.731 34.1874 143.731 31.4078C143.731 29.9587 143.717 28.5293 143.691 27.1198C143.677 25.7102 143.677 24.3269 143.691 22.9701C143.704 22.5353 143.824 22.2126 144.052 22.0018C144.293 21.7778 144.547 21.6659 144.814 21.6659C145.095 21.6659 145.35 21.7647 145.577 21.9623C145.804 22.1599 145.885 22.4958 145.818 22.9701C145.764 23.4443 145.718 24.0635 145.677 24.8275C145.651 25.5916 145.631 26.3754 145.617 27.179C145.577 28.5228 145.557 29.9916 145.557 31.5856Z" fill="white"/>
<path d="M166.654 22.1599C166.654 22.8713 166.293 23.2796 165.57 23.385C164.687 23.5563 163.691 24.3006 162.58 25.618C161.389 27.0407 160.721 28.4437 160.573 29.8269C160.52 30.4329 160.493 30.9862 160.493 31.4868C160.493 32.6856 160.547 33.9437 160.654 35.2611C160.68 35.6958 160.567 36.0252 160.313 36.2491C160.072 36.4731 159.804 36.585 159.51 36.585C159.229 36.585 158.981 36.4862 158.767 36.2886C158.553 36.0778 158.466 35.7683 158.506 35.3599C158.547 34.9383 158.58 34.4575 158.607 33.9174C158.634 33.3641 158.66 32.7844 158.687 32.1784C158.714 31.1509 158.727 30.0048 158.727 28.7401C158.727 26.606 158.7 25.0252 158.647 23.9976C158.593 22.9569 158.6 22.3575 158.667 22.1994C158.734 22.0413 158.821 21.9162 158.928 21.824C159.155 21.6132 159.403 21.5078 159.67 21.5078C159.951 21.5078 160.199 21.6066 160.413 21.8042C160.64 22.0018 160.741 22.2587 160.714 22.5749C160.701 22.8778 160.674 23.1808 160.634 23.4838C160.607 23.7737 160.573 24.1359 160.533 24.5707C160.453 25.2689 160.379 26.0132 160.313 26.8036C160.861 25.4467 161.644 24.1952 162.66 23.0491C163.798 21.7976 164.788 21.1719 165.63 21.1719C165.992 21.1719 166.252 21.2707 166.413 21.4683C166.574 21.6659 166.654 21.8964 166.654 22.1599Z" fill="white"/>
<path d="M178.692 10.2795L178.953 8.73817C178.953 7.56572 178.558 6.84116 177.769 6.56452C177.542 6.48548 177.241 6.44596 176.866 6.44596C176.505 6.44596 176.15 6.56452 175.803 6.80164C175.455 7.03877 175.16 7.48667 174.92 8.14536C174.384 9.68667 174.157 10.2575 174.237 16.7653C174.264 18.4778 174.277 20.1377 174.277 21.7449L177.508 21.6461C178.405 21.6461 178.853 21.9754 178.853 22.6341C178.853 23.0425 178.625 23.3389 178.171 23.5234C178.01 23.576 177.756 23.5892 177.408 23.5629C176.338 23.5102 175.615 23.4838 175.241 23.4838C174.879 23.4838 174.558 23.4904 174.277 23.5036V27.0407C174.277 30.8611 174.324 33.1533 174.418 33.9174C174.512 34.6814 174.532 35.182 174.478 35.4192C174.425 35.6563 174.338 35.8539 174.217 36.012C173.976 36.3545 173.702 36.5257 173.395 36.5257C173.1 36.5257 172.853 36.4072 172.652 36.1701C172.465 35.9329 172.378 35.597 172.391 35.1623C172.418 34.7275 172.431 34.1216 172.431 33.3443C172.445 32.5539 172.445 31.612 172.431 30.5186C172.431 29.412 172.431 28.1737 172.431 26.8036C172.418 25.7892 172.405 24.7287 172.391 23.6222C172.083 23.6485 171.722 23.6683 171.308 23.6814C170.866 23.7078 170.545 23.6156 170.344 23.4048C170.144 23.194 170.043 22.9701 170.043 22.7329C170.043 22.4958 170.083 22.3114 170.164 22.1796C170.257 22.0347 170.371 21.9162 170.505 21.824C170.759 21.6527 171.033 21.5671 171.328 21.5671L172.391 21.6461C172.364 18.7874 172.351 16.0671 172.351 13.485C172.351 10.6659 172.425 11.9986 172.572 10.5759C172.732 9.15314 172.993 7.99386 173.354 7.09805C174.063 5.39865 175.348 4.54895 177.207 4.54895C178.946 4.54895 180.11 5.51063 180.699 7.43398C180.9 8.06631 181 8.75793 181 9.50883C181 10.2466 180.88 10.7603 180.639 11.0501C180.398 11.34 180.117 11.4849 179.796 11.4849C179.06 11.4849 178.692 11.0831 178.692 10.2795Z" fill="white"/>
<path d="M8.53052 35.9709L11.9645 34.5025C11.9645 34.5025 15.2284 25.6135 17.3063 20.1856C19.3326 14.8925 22.6483 6.60283 22.6483 6.60283L21.122 3.66602C21.122 3.66602 17.4497 13.658 15.107 19.2947C12.7643 24.9313 8.53052 35.9709 8.53052 35.9709Z" fill="white"/>
<path d="M59.2782 13.9442L56.2257 15.4126C56.2257 15.4126 47.2468 13.0983 40.4221 11.4109C34.5578 9.96093 22.6454 6.97302 22.6454 6.97302L21.1193 3.66919L59.2782 13.9442Z" fill="white"/>
<path d="M39.4368 32.6664C53.9754 26.4618 59.2781 13.9443 59.2781 13.9443L56.2256 15.4127C56.2256 15.4127 50.8478 24.9162 37.5292 30.4638C24.2106 36.0115 15.2045 34.4385 11.9646 34.1345L8.53054 35.9702C8.53054 35.9702 24.8981 38.8711 39.4368 32.6664Z" fill="white"/>
<path d="M27.0987 34.1669C25.2834 36.8861 21.2286 38.3492 19.0589 38.9635C18.6005 39.0932 18.2218 38.5328 18.4616 38.1287C18.9767 37.2606 19.4983 36.0503 19.2717 34.9599L27.0987 34.1669Z" fill="white"/>
<path d="M11.583 34.5012L14.6355 31.5644L19.0854 20.244L23.4115 8.43698L22.6484 6.23438L17.0949 19.4315L11.583 34.5012Z" fill="black"/>
<path d="M56.9889 15.0446L52.0287 15.7788L38.2923 12.1074L23.4116 8.43644L22.6498 6.23199L38.2923 10.2721L56.9889 15.0446Z" fill="black"/>
<path d="M30.4233 20.9178C14.9231 28.3736 11.583 34.5006 11.583 34.5006L12.7517 34.2226C12.7517 34.2226 21.5037 28.2074 31.8058 23.1211C39.8977 19.1259 55.081 16.5132 55.081 16.5132L56.9888 15.0448C56.9888 15.0448 45.9235 13.462 30.4233 20.9178Z" fill="black"/>
<path d="M38.2982 30.5198C51.7999 24.7639 56.9889 15.0447 56.9889 15.0447L53.5549 16.1467C53.5549 16.1467 48.7533 23.8487 36.3847 28.9952C24.016 34.1418 17.3066 32.2992 13.8726 31.9321L11.5831 34.5013C11.5831 34.5013 24.7965 36.2758 38.2982 30.5198Z" fill="black"/>
<path d="M23.4115 8.43778L13.8725 32.2994C13.8725 32.2994 22.1894 24.8254 30.6697 20.8538C39.6943 16.6273 53.9363 15.7798 53.9363 15.7798L23.4115 8.43778Z" fill="#EDF060"/>
<path d="M32.1874 22.0202C22.5794 26.4181 14.2553 33.3717 14.2553 33.3717C14.2553 33.3717 26.6908 33.7083 36.5248 29.5153C46.3588 25.3223 54.6994 16.5134 54.6994 16.5134C54.6994 16.5134 41.7953 17.6223 32.1874 22.0202Z" fill="#66D7D1"/>
<path d="M25.2413 34.0605C24.5043 35.2156 22.7763 36.2737 21.5025 36.9392C21.0662 37.1672 20.5806 36.6416 20.7791 36.1931C21.104 35.459 21.3841 34.5748 21.2848 33.851C21.0734 32.31 20.1669 30.995 20.1669 30.995L25.2419 28.6285C25.2419 28.6285 26.4764 32.1248 25.2413 34.0605Z" fill="black"/>
</g>
<defs>
<clipPath id="clip0_196_1152">
<rect width="185" height="42" fill="white"/>
</clipPath>
</defs>
</svg>
