<svg width="231" height="56" viewBox="0 0 231 56" fill="none" xmlns="http://www.w3.org/2000/svg">
<g clip-path="url(#clip0_677_1213)">
<path d="M126.824 16.0462C127.77 18.3171 128.242 20.8301 128.242 23.585C128.242 26.3213 127.873 28.8714 127.135 31.2354C126.396 33.5808 125.65 35.7587 124.321 37.769C122.992 39.7607 121.397 41.5663 119.536 43.1857C117.705 44.7865 115.667 46.1547 113.422 47.2901C108.785 49.6355 104.324 50.8082 98.8895 50.8082C98.033 50.8082 97.4718 50.6407 97.206 50.3057C96.9697 49.952 96.8516 49.5332 96.8516 49.0492V46.648C96.8516 45.4939 96.8368 44.0978 96.8073 42.4598C96.8073 40.8031 96.7925 38.9696 96.7629 36.9593C96.7629 34.9303 96.7334 32.8362 96.6743 30.677C96.6448 28.4991 96.6005 26.3119 96.5414 24.1155C96.5119 21.9004 96.4676 19.7877 96.4085 17.7773C96.2313 13.6078 96.0246 10.3224 95.7883 7.92112C95.6406 6.65535 96.5267 5.94801 98.4465 5.7991C101.282 5.5385 103.615 5.4082 105.446 5.4082C117.32 5.4082 123.871 8.95421 126.824 16.0462ZM99.5578 48.1836C102.895 48.1092 107.942 47.2064 111.25 45.4753C117.393 42.255 122.361 37.4525 124.428 31.0679C125.137 28.8714 125.492 26.3864 125.492 23.6129C125.492 20.8208 124.945 18.4009 123.852 16.3534C122.789 14.2872 121.777 12.8791 118.538 10.8366C115.928 9.1899 111.457 7.94904 106.377 7.94904C104.162 7.94904 100.636 8.09795 99.2477 8.39578C99.0114 10.313 98.8933 13.0028 98.8933 16.465C98.8933 20.616 98.908 23.7897 98.9376 25.9862C98.9671 28.1827 98.9966 30.3326 99.0262 32.436C99.0852 34.5394 99.1295 36.5591 99.1591 38.4949C99.2181 40.4122 99.2772 42.134 99.3363 43.6604C99.4249 45.5776 99.4987 47.0854 99.5578 48.1836Z" fill="white"/>
<path d="M114.16 28.7968C114.065 31.1251 113.97 33.4197 113.875 35.6808C113.78 37.9419 113.732 39.9791 113.732 41.7925C113.732 43.6058 113.78 45.4863 113.875 47.434C113.97 49.3593 113.97 50.4674 113.875 50.7585C113.799 51.0271 113.685 51.251 113.533 51.4301C113.21 51.8106 112.858 52.0009 112.478 52.0009C112.097 52.0009 111.736 51.833 111.394 51.4972C111.07 51.1614 110.947 50.4786 111.023 49.4488C111.232 46.6057 111.337 43.7289 111.337 40.8186C111.337 37.9083 111.299 35.5577 111.223 33.7667C111.166 31.9534 111.118 30.5878 111.08 29.6699C111.061 28.7521 111.099 28.1588 111.194 27.8902C111.289 27.6215 111.422 27.4088 111.593 27.2521C111.917 26.8939 112.278 26.7148 112.677 26.7148C113.076 26.7148 113.428 26.8827 113.732 27.2186C114.037 27.5544 114.179 28.0804 114.16 28.7968Z" fill="#66D7D1"/>
<path d="M111.807 29.2713C109.222 29.231 106.674 29.19 104.164 29.1483C101.653 29.1065 99.3924 29.1064 97.3806 29.1479C95.3689 29.1894 93.2836 29.2792 91.1248 29.4172C88.9908 29.5548 87.7614 29.5802 87.4366 29.4933C87.137 29.4247 86.8863 29.3176 86.6846 29.172C86.2558 28.8628 86.0375 28.5211 86.0298 28.1471C86.0221 27.773 86.201 27.4138 86.5666 27.0695C86.9326 26.7438 87.6876 26.6066 88.8316 26.6579C91.9901 26.7986 95.1837 26.8356 98.4124 26.769C101.641 26.7024 104.248 26.6112 106.234 26.4954C108.244 26.3978 109.758 26.3197 110.776 26.2613C111.794 26.2216 112.453 26.2454 112.752 26.3328C113.052 26.4202 113.291 26.5462 113.468 26.711C113.872 27.0207 114.078 27.372 114.086 27.7648C114.095 28.1575 113.915 28.5074 113.549 28.8143C113.183 29.1213 112.602 29.2736 111.807 29.2713Z" fill="#66D7D1"/>
<path d="M114.826 20.2509C114.863 19.8206 114.816 19.4558 114.685 19.1565C114.274 18.2585 113.563 17.8096 112.553 17.8096C111.935 17.8096 111.318 18.0808 110.701 18.6233C110.326 18.9414 110.139 19.4652 110.139 20.1947C110.139 20.9243 110.383 21.5136 110.869 21.9626C111.075 22.1496 111.309 22.2993 111.571 22.4115C111.832 22.5051 112.188 22.5518 112.637 22.5518C113.086 22.5518 113.525 22.3835 113.956 22.0467C114.18 21.8597 114.377 21.6165 114.545 21.3172C114.713 21.0178 114.807 20.6624 114.826 20.2509Z" fill="#EDF060"/>
<path d="M143.961 36.8601C144.62 36.8601 145.035 37.1105 145.204 37.6113C145.374 38.1121 145.459 38.9376 145.459 40.0876C145.459 41.2377 145.619 42.3136 145.939 43.3152C146.259 44.3169 146.702 45.1609 147.267 45.8472C148.416 47.2198 150.008 47.9062 152.042 47.9062C154.077 47.9062 155.697 47.1735 156.902 45.7081C158.108 44.2241 158.711 42.1002 158.711 39.3364C158.711 35.6451 157.119 32.3619 153.935 29.4867C153.031 28.6706 152.099 27.8637 151.138 27.066C150.196 26.2684 149.273 25.443 148.369 24.5897C147.465 23.7364 146.655 22.7904 145.939 21.7517C144.376 19.4701 143.594 16.8732 143.594 13.961C143.594 10.9745 144.489 8.56313 146.278 6.72675C148.049 4.90892 150.272 4 152.946 4C155.245 4 157.128 4.76052 158.598 6.28156C160.237 8.0252 160.99 10.4366 160.858 13.5158C160.839 13.6642 160.83 13.8218 160.83 13.9888C160.849 14.1557 160.83 14.4711 160.773 14.9348C160.736 15.3985 160.538 15.8159 160.18 16.1869C159.841 16.5393 159.464 16.7155 159.05 16.7155C158.654 16.7155 158.315 16.5393 158.033 16.1869C157.75 15.8159 157.656 15.3336 157.75 14.74C157.995 13.3859 158.117 12.3657 158.117 11.6794C158.117 10.9745 157.985 10.3068 157.722 9.67608C157.477 9.04541 157.119 8.48893 156.648 8.00665C155.631 6.98644 154.312 6.47633 152.692 6.47633C150.903 6.47633 149.443 7.07918 148.313 8.28489C147.069 9.62043 146.448 11.262 146.448 13.2097C146.448 15.1574 146.664 16.7341 147.098 17.9398C147.531 19.1269 148.096 20.2028 148.793 21.1674C149.509 22.1319 150.319 23.013 151.223 23.8106C152.127 24.6083 153.041 25.3966 153.964 26.1757C154.906 26.9547 155.829 27.7616 156.733 28.5964C157.637 29.4125 158.447 30.3214 159.163 31.3231C160.726 33.5861 161.508 36.1923 161.508 39.1416C161.508 42.5918 160.604 45.3464 158.795 47.4053C157.006 49.4458 154.614 50.466 151.618 50.466C148.831 50.466 146.561 49.4087 144.809 47.294C143.151 45.3093 142.322 43.0741 142.322 40.5885C142.322 38.1029 142.869 36.8601 143.961 36.8601Z" fill="white"/>
<path d="M169.86 42.8422C169.86 46.144 171.112 47.7949 173.618 47.7949C175.049 47.7949 176.274 47.09 177.291 45.6802C178.195 44.4189 178.732 42.9164 178.902 41.1728C178.958 39.5404 178.986 38.0379 178.986 36.6653C178.986 34.6991 178.967 32.7143 178.93 30.711C178.892 30.0988 179.052 29.6351 179.41 29.3198C179.768 29.0044 180.135 28.8468 180.512 28.8468C180.908 28.8468 181.256 28.9952 181.558 29.292C181.859 29.5702 181.972 29.9876 181.897 30.544C181.558 34.124 181.388 37.5835 181.388 40.9224C181.388 44.2427 181.435 46.0976 181.529 46.4871C181.624 46.8767 181.737 47.2013 181.868 47.461C182.17 48.1288 182.321 48.6203 182.321 48.9357C182.321 49.2324 182.198 49.5107 181.953 49.7704C181.727 50.0486 181.407 50.1877 180.992 50.1877C179.58 50.1877 178.892 48.9171 178.93 46.3759C178.289 47.5259 177.696 48.3235 177.15 48.7687C175.285 50.2898 173.241 50.6515 171.018 49.8538C168.532 48.9264 167.288 46.5057 167.288 42.5918C167.288 40.5514 167.27 38.5388 167.232 36.554C167.213 34.5692 167.213 32.6216 167.232 30.711C167.251 30.0988 167.42 29.6444 167.74 29.3476C168.08 29.0323 168.437 28.8746 168.814 28.8746C169.21 28.8746 169.568 29.0137 169.888 29.292C170.208 29.5702 170.321 30.0432 170.227 30.711C170.152 31.3787 170.086 32.2506 170.029 33.3264C169.992 34.4023 169.963 35.506 169.944 36.6375C169.888 38.5295 169.86 40.5977 169.86 42.8422Z" fill="white"/>
<path d="M199.565 29.5702C199.565 30.5719 199.057 31.1469 198.039 31.2953C196.796 31.5364 195.393 32.5845 193.829 34.4394C192.153 36.4427 191.211 38.4182 191.004 40.3659C190.928 41.2191 190.891 41.9982 190.891 42.7031C190.891 44.3911 190.966 46.1625 191.117 48.0175C191.154 48.6296 190.994 49.0933 190.636 49.4087C190.297 49.724 189.921 49.8817 189.506 49.8817C189.111 49.8817 188.762 49.7425 188.461 49.4643C188.159 49.1675 188.037 48.7316 188.093 48.1566C188.15 47.563 188.197 46.886 188.235 46.1254C188.272 45.3464 188.31 44.5302 188.348 43.6769C188.385 42.2301 188.404 40.6163 188.404 38.8356C188.404 35.8306 188.366 33.6047 188.291 32.1578C188.216 30.6924 188.225 29.8484 188.319 29.6258C188.414 29.4033 188.536 29.227 188.687 29.0972C189.007 28.8004 189.355 28.652 189.732 28.652C190.128 28.652 190.476 28.7911 190.778 29.0694C191.098 29.3476 191.239 29.7093 191.201 30.1545C191.183 30.5811 191.145 31.0078 191.088 31.4344C191.051 31.8425 191.004 32.3526 190.947 32.9647C190.834 33.9478 190.731 34.9959 190.636 36.1088C191.409 34.1982 192.511 32.4361 193.942 30.8223C195.543 29.0601 196.937 28.179 198.124 28.179C198.633 28.179 199 28.3181 199.226 28.5964C199.452 28.8746 199.565 29.1992 199.565 29.5702Z" fill="white"/>
<path d="M216.516 12.8419L216.883 10.6716C216.883 9.02074 216.328 8.00053 215.216 7.61099C214.896 7.4997 214.472 7.44405 213.945 7.44405C213.436 7.44405 212.937 7.61099 212.447 7.94488C211.957 8.27877 211.543 8.90944 211.204 9.83691C210.451 12.0072 210.13 12.8109 210.243 21.9743C210.281 24.3857 210.3 26.7229 210.3 28.9859L214.849 28.8468C216.111 28.8468 216.742 29.3105 216.742 30.238C216.742 30.813 216.422 31.2304 215.781 31.49C215.555 31.5642 215.198 31.5828 214.708 31.5457C213.201 31.4715 212.184 31.4344 211.656 31.4344C211.147 31.4344 210.695 31.4437 210.3 31.4622V36.4427C210.3 41.822 210.366 45.0496 210.498 46.1254C210.629 47.2013 210.658 47.9062 210.582 48.2401C210.507 48.5739 210.385 48.8522 210.215 49.0748C209.876 49.5571 209.49 49.7982 209.057 49.7982C208.642 49.7982 208.294 49.6313 208.011 49.2974C207.747 48.9635 207.625 48.4905 207.644 47.8783C207.681 47.2662 207.7 46.4129 207.7 45.3185C207.719 44.2056 207.719 42.8793 207.7 41.3397C207.7 39.7816 207.7 38.0379 207.7 36.1088C207.681 34.6805 207.663 33.1873 207.644 31.6292C207.21 31.6663 206.702 31.6941 206.118 31.7126C205.496 31.7497 205.044 31.6199 204.762 31.3231C204.479 31.0263 204.338 30.711 204.338 30.3771C204.338 30.0432 204.394 29.7835 204.507 29.598C204.639 29.394 204.799 29.227 204.988 29.0972C205.346 28.856 205.732 28.7355 206.146 28.7355L207.644 28.8468C207.606 24.8216 207.587 20.9911 207.587 17.3555C207.587 13.3859 207.691 15.2626 207.898 13.2593C208.124 11.2559 208.491 9.62359 209 8.36224C209.998 5.96938 211.807 4.77295 214.425 4.77295C216.874 4.77295 218.513 6.12705 219.342 8.83525C219.624 9.72561 219.766 10.6995 219.766 11.7568C219.766 12.7955 219.596 13.5189 219.257 13.927C218.918 14.3351 218.522 14.5392 218.07 14.5392C217.034 14.5392 216.516 13.9734 216.516 12.8419Z" fill="white"/>
<path d="M9.32251 48.4806L13.8312 46.5527C13.8312 46.5527 18.1166 34.8817 20.8448 27.755C23.5053 20.8055 27.8586 9.92136 27.8586 9.92136L25.8547 6.06543C25.8547 6.06543 21.0331 19.1845 17.9572 26.5853C14.8813 33.9861 9.32251 48.4806 9.32251 48.4806Z" fill="white"/>
<path d="M75.9525 19.5601L71.9447 21.4881C71.9447 21.4881 60.1556 18.4495 51.195 16.2339C43.4954 14.3302 27.8548 10.4072 27.8548 10.4072L25.8511 6.06938L75.9525 19.5601Z" fill="white"/>
<path d="M49.9014 44.1421C68.9901 35.9957 75.9524 19.5606 75.9524 19.5606L71.9446 21.4886C71.9446 21.4886 64.8836 33.9664 47.3968 41.2502C29.91 48.534 18.0852 46.4688 13.8313 46.0697L9.32258 48.4799C9.32258 48.4799 30.8127 52.2886 49.9014 44.1421Z" fill="white"/>
<path d="M33.7018 46.1114C31.1875 49.8777 25.4011 51.8086 22.6998 52.532C22.2393 52.6553 21.8667 52.0961 22.1213 51.7012C22.8602 50.5551 23.7583 48.7552 23.4251 47.1526L33.7018 46.1114Z" fill="white"/>
<path d="M13.3303 46.5508L17.3381 42.6949L23.1808 27.8316L28.8607 12.3294L27.8587 9.4375L20.5672 26.7649L13.3303 46.5508Z" fill="black"/>
<path d="M72.9467 21.0049L66.434 21.9689L48.3987 17.1485L28.8609 12.3286L27.8606 9.43425L48.3987 14.7387L72.9467 21.0049Z" fill="black"/>
<path d="M38.0669 28.7158C17.7158 38.505 13.3303 46.5495 13.3303 46.5495L14.8647 46.1845C14.8647 46.1845 26.3558 38.2868 39.8821 31.6086C50.5065 26.3632 70.4417 22.9328 70.4417 22.9328L72.9465 21.0048C72.9465 21.0048 58.4181 18.9266 38.0669 28.7158Z" fill="black"/>
<path d="M48.4064 41.3232C66.1336 33.7658 72.9466 21.0049 72.9466 21.0049L68.4379 22.4518C68.4379 22.4518 62.1335 32.5643 45.894 39.3215C29.6544 46.0787 20.8452 43.6594 16.3364 43.1774L13.3304 46.5507C13.3304 46.5507 30.6792 48.8806 48.4064 41.3232Z" fill="black"/>
<path d="M28.8606 12.3309L16.3362 43.6603C16.3362 43.6603 27.256 33.8473 38.3904 28.6327C50.2394 23.0834 68.9387 21.9707 68.9387 21.9707L28.8606 12.3309Z" fill="#EDF060"/>
<path d="M40.3832 30.1641C27.7683 35.9384 16.8391 45.0682 16.8391 45.0682C16.8391 45.0682 33.1664 45.5102 46.0781 40.0049C58.9898 34.4996 69.9407 22.9339 69.9407 22.9339C69.9407 22.9339 52.9981 24.3897 40.3832 30.1641Z" fill="#66D7D1"/>
<path d="M31.2632 45.9719C30.2019 47.6352 27.5755 49.1454 25.8873 49.9904C25.4469 50.2108 24.9675 49.6859 25.1833 49.2459C25.6912 48.2101 26.221 46.8093 26.0684 45.6969C25.7908 43.6736 24.6007 41.947 24.6007 41.947L31.2639 38.8399C31.2639 38.8399 32.8848 43.4305 31.2632 45.9719Z" fill="black"/>
</g>
<defs>
<clipPath id="clip0_677_1213">
<rect width="231" height="56" fill="white"/>
</clipPath>
</defs>
</svg>
