<svg width="100" height="100" viewBox="0 0 100 100" fill="none" xmlns="http://www.w3.org/2000/svg">
<g clip-path="url(#clip0_115_1143)">
<circle cx="50" cy="50" r="50" fill="white" fill-opacity="0.25"/>
<path d="M62.3561 37H42.1905C41.7749 37 41.4026 37.2571 41.2554 37.6458L29.513 68.6458C29.2651 69.3 29.7485 70 30.4481 70H56.9458C57.2905 70 57.611 69.8224 57.7938 69.53L64.0163 59.574C64.4383 58.8988 65.4416 58.9635 65.7733 59.6873L70.2326 69.4167C70.3955 69.7721 70.7507 70 71.1417 70H76.447C77.1743 70 77.6583 69.2483 77.3574 68.5862L63.2665 37.5862C63.1042 37.2292 62.7482 37 62.3561 37Z" fill="#EB7FBA"/>
<path d="M50 67H54.382C54.7607 67 55.107 66.786 55.2764 66.4472L60.0664 56.8673C60.4419 56.1162 61.52 56.1345 61.8698 56.8978L66.2326 66.4167C66.3955 66.7721 66.7507 67 67.1417 67H74.9371C75.6669 67 76.1509 66.2436 75.845 65.5809L73.5 60.5" stroke="#18193F" stroke-width="4" stroke-linecap="round"/>
<path d="M50.5 30H37.1681C36.7637 30 36.3991 30.2436 36.2443 30.6173L22.5728 63.6173C22.3001 64.2757 22.784 65 23.4967 65H43.3576C43.749 65 44.1044 64.7717 44.2671 64.4158L59.0688 32.037C59.4284 31.2504 60.5494 31.2603 60.895 32.0532L68.5 49.5" stroke="#18193F" stroke-width="4" stroke-linecap="round"/>
</g>
<defs>
<clipPath id="clip0_115_1143">
<rect width="100" height="100" fill="white"/>
</clipPath>
</defs>
</svg>
