<svg width="100" height="100" viewBox="0 0 100 100" fill="none" xmlns="http://www.w3.org/2000/svg">
<g clip-path="url(#clip0_114_996)">
<circle cx="50" cy="50" r="50" fill="white" fill-opacity="0.25"/>
<path d="M45.0071 54.5C44.7553 45.2358 51.2345 32.7889 53.632 28.5146C54.0108 27.8392 54.9578 27.8681 55.2988 28.5634C57.4225 32.8938 63.0497 45.3293 62.5071 54.5C61.9075 64.6359 61.5 78.5 53.5071 78.5C45.5143 78.5 45.2773 64.4394 45.0071 54.5Z" fill="#66D7D1"/>
<path d="M52.3694 30L49.6903 26.1728C49.2917 25.6034 48.4543 25.6046 48.0716 26.1848C45.9745 29.364 40.3918 38.2638 39.2866 44.5M40.8694 63C40.8694 63 39.8105 58.6466 39.2866 53.5M39.2866 44.5L47.4953 41.1525C47.7353 41.0547 48.0038 41.0538 48.2443 41.15L57.8693 45M39.2866 44.5C38.7505 47.5255 38.9485 50.178 39.2866 53.5M57.8693 45V53.5M57.8693 45L56.3693 38M39.2866 53.5L47.4772 49.6828C47.7274 49.5661 48.0147 49.5581 48.271 49.6607L57.8693 53.5M57.8693 53.5C57.8693 53.5 57.6385 60.9113 56.3693 65.5C55.3098 69.3307 52.5347 74.7802 51.6468 76.4759C51.4763 76.8015 51.1402 77 50.7727 77H46.5333C46.131 77 45.7678 76.7589 45.6117 76.3881L41.8693 67.5" stroke="black" stroke-width="3" stroke-linecap="round"/>
</g>
<defs>
<clipPath id="clip0_114_996">
<rect width="100" height="100" fill="white"/>
</clipPath>
</defs>
</svg>
